<?xml version='1.0' encoding='utf-8'?>
<svg xmlns="http://www.w3.org/2000/svg" width="1000" height="1400" viewBox="0 0 1 1">
  <line x1="0" y1="0.041983692542366356" x2="1" y2="0.041983692542366356" stroke="#00ff00" stroke-width="0.002" stroke-opacity="0.5" />
  <line x1="0" y1="0.2598903835683629" x2="1" y2="0.2598903835683629" stroke="#00ff00" stroke-width="0.002" stroke-opacity="0.5" />
  <line x1="0" y1="0.34724455294401746" x2="1" y2="0.34724455294401746" stroke="#00ff00" stroke-width="0.002" stroke-opacity="0.5" />
  <line x1="0" y1="0.5207323302393374" x2="1" y2="0.5207323302393374" stroke="#00ff00" stroke-width="0.002" stroke-opacity="0.5" />
  <line x1="0" y1="0.7258677551711815" x2="1" y2="0.7258677551711815" stroke="#00ff00" stroke-width="0.002" stroke-opacity="0.5" />
  <line x1="0" y1="0.8981902357460796" x2="1" y2="0.8981902357460796" stroke="#00ff00" stroke-width="0.002" stroke-opacity="0.5" />
  <line x1="0.004734848484848485" y1="0" x2="0.004734848484848485" y2="1" stroke="#0000ff" stroke-width="0.002" stroke-opacity="0.5" />
  <line x1="0.07634091377258301" y1="0" x2="0.07634091377258301" y2="1" stroke="#0000ff" stroke-width="0.002" stroke-opacity="0.5" />
  <line x1="0.07634091377258301" y1="0" x2="0.07634091377258301" y2="1" stroke="#0000ff" stroke-width="0.002" stroke-opacity="0.5" />
  <line x1="0.37304921583695844" y1="0" x2="0.37304921583695844" y2="1" stroke="#0000ff" stroke-width="0.002" stroke-opacity="0.5" />
  <line x1="0.37304921583695844" y1="0" x2="0.37304921583695844" y2="1" stroke="#0000ff" stroke-width="0.002" stroke-opacity="0.5" />
  <line x1="0.5571873982747396" y1="0" x2="0.5571873982747396" y2="1" stroke="#0000ff" stroke-width="0.002" stroke-opacity="0.5" />
  <line x1="0.5571873982747396" y1="0" x2="0.5571873982747396" y2="1" stroke="#0000ff" stroke-width="0.002" stroke-opacity="0.5" />
  <line x1="0.7291666666666666" y1="0" x2="0.7291666666666666" y2="1" stroke="#0000ff" stroke-width="0.002" stroke-opacity="0.5" />
  <line x1="0.7291666666666666" y1="0" x2="0.7291666666666666" y2="1" stroke="#0000ff" stroke-width="0.002" stroke-opacity="0.5" />
  <line x1="0.9518485213771011" y1="0" x2="0.9518485213771011" y2="1" stroke="#0000ff" stroke-width="0.002" stroke-opacity="0.5" />
  <line x1="0.9518485213771011" y1="0" x2="0.9518485213771011" y2="1" stroke="#0000ff" stroke-width="0.002" stroke-opacity="0.5" />
  <line x1="0.9518485213771011" y1="0" x2="0.9518485213771011" y2="1" stroke="#0000ff" stroke-width="0.002" stroke-opacity="0.5" />
  <rect x="0.004734848484848485" y="0.010869561762049578" width="0.15710228139703925" height="0.06222826156063356" fill="none" stroke="#ff0000" stroke-width="0.003" />
  <rect x="0.004734848484848485" y="0.010869561762049578" width="0.36831436735210993" height="0.06222826156063356" fill="#ffff00" fill-opacity="0.2" />
  <rect x="0.004734848484848485" y="0.20833330569059952" width="0.36831436735210993" height="0.0497826285984205" fill="none" stroke="#ff0000" stroke-width="0.003" />
  <rect x="0.004734848484848485" y="0.20833330569059952" width="0.36831436735210993" height="0.0497826285984205" fill="#ffff00" fill-opacity="0.2" />
  <rect x="0.007575757575757576" y="0.2644927536231884" width="0.549611640698982" height="0.04412678704745526" fill="none" stroke="#ff0000" stroke-width="0.003" />
  <rect x="0.07634091377258301" y="0.2644927536231884" width="0.4808464845021566" height="0.04412678704745526" fill="#ffff00" fill-opacity="0.2" />
  <rect x="0.005681818181818182" y="0.32608695652173914" width="0.12075474767973929" height="0.042315192844556704" fill="none" stroke="#ff0000" stroke-width="0.003" />
  <rect x="0.005681818181818182" y="0.41666663902393286" width="0.1749943241928563" height="0.04729348334713257" fill="none" stroke="#ff0000" stroke-width="0.003" />
  <rect x="0.005681818181818182" y="0.4746376811594203" width="0.3941874648585464" height="0.04231522048729053" fill="none" stroke="#ff0000" stroke-width="0.003" />
  <rect x="0.004734848484848485" y="0.4746376811594203" width="0.36831436735210993" height="0.04231522048729053" fill="#ffff00" fill-opacity="0.2" />
  <rect x="0.006628787878787879" y="0.5253623188405797" width="0.13641477353645093" height="0.04480433809584461" fill="none" stroke="#ff0000" stroke-width="0.003" />
  <rect x="0.004734848484848485" y="0.5253623188405797" width="0.36831436735210993" height="0.04480433809584461" fill="#ffff00" fill-opacity="0.2" />
  <rect x="0.004734848484848485" y="0.5778985507246377" width="0.07160606528773453" height="0.04231522048729053" fill="none" stroke="#ff0000" stroke-width="0.003" />
  <rect x="0.004734848484848485" y="0.7047101449275363" width="0.1503115567294034" height="0.04231522048729053" fill="none" stroke="#ff0000" stroke-width="0.003" />
  <rect x="0.004734848484848485" y="0.7047101449275363" width="0.36831436735210993" height="0.04231522048729053" fill="#ffff00" fill-opacity="0.2" />
  <rect x="0.7291666666666666" y="0.8695652173913043" width="0.22268185471043445" height="0.057250036709550534" fill="none" stroke="#ff0000" stroke-width="0.003" />
</svg>